<?xml version="1.0" encoding="utf-8"?>
<!-- Generator: Adobe Illustrator 26.3.1, SVG Export Plug-In . SVG Version: 6.00 Build 0)  -->
<svg version="1.1" id="Layer_1" xmlns="http://www.w3.org/2000/svg" xmlns:xlink="http://www.w3.org/1999/xlink" x="0px" y="0px"
	 viewBox="0 0 30 30" style="enable-background:new 0 0 30 30;" xml:space="preserve">
<style type="text/css">
	.st0{fill:#FFFFFF;}
	.st1{fill:#F8F7F6;}
	.st2{fill:#F9FBFB;}
	.st3{fill:#010101;}
	.st4{fill:#F7FAFC;}
	.st5{fill:none;stroke:#010101;stroke-width:1.4;stroke-miterlimit:10;}
	.st6{fill:none;stroke:#010101;stroke-width:1.4;stroke-linecap:round;stroke-linejoin:round;stroke-miterlimit:10;}
	.st7{fill:none;stroke:#000000;stroke-miterlimit:10;}
	.st8{fill:#F8FAFB;}
	.st9{fill:none;stroke:#010101;stroke-width:4;stroke-miterlimit:10;}
	.st10{fill:none;stroke:#010101;stroke-width:4;stroke-linecap:round;stroke-linejoin:round;stroke-miterlimit:10;}
	.st11{fill:none;stroke:#000000;stroke-width:4;stroke-miterlimit:10;}
	.st12{fill:none;stroke:#010101;stroke-miterlimit:10;}
	.st13{font-family:'Futura-Medium';}
	.st14{font-size:14.9217px;}
</style>
<path class="st12" d="M16,4.4l1.5,1c0.3,0.2,0.7,0.3,1.1,0.3l1.8-0.1c0.7-0.1,1.4,0.3,1.7,1l0.8,1.6c0.2,0.3,0.4,0.6,0.8,0.8
	l1.6,0.8c0.6,0.3,1,1,1,1.6l-0.1,1.8c0,0.4,0.1,0.8,0.3,1.1l1,1.5c0.4,0.6,0.4,1.3,0,1.9l-1,1.5c-0.2,0.3-0.3,0.7-0.3,1.1l0.1,1.8
	c0.1,0.7-0.3,1.3-1,1.6l-1.6,0.8c-0.3,0.2-0.6,0.4-0.8,0.8l-0.8,1.6c-0.3,0.6-1,1-1.7,1l-1.8-0.1c-0.4,0-0.8,0.1-1.1,0.3l-1.5,1
	c-0.6,0.4-1.3,0.4-1.9,0l-1.5-1c-0.3-0.2-0.7-0.3-1.1-0.3l-1.8,0.1c-0.7,0.1-1.4-0.3-1.7-1L7.3,25c-0.2-0.3-0.4-0.6-0.8-0.8
	l-1.6-0.8c-0.6-0.3-1-1-1-1.6L4.1,20c0-0.4-0.1-0.8-0.3-1.1l-1-1.5c-0.4-0.6-0.4-1.3,0-1.9l1-1.5c0.2-0.3,0.3-0.7,0.3-1.1l-0.1-1.8
	c-0.1-0.7,0.3-1.3,1-1.6l1.6-0.8c0.3-0.2,0.6-0.4,0.8-0.8l0.8-1.6c0.3-0.6,1-1,1.7-1l1.8,0.1c0.4,0,0.8-0.1,1.1-0.3l1.5-1
	C14.6,4,15.4,4,16,4.4z"/>
<text transform="matrix(0.9767 0.2145 -0.2145 0.9767 7.1808 20.8267)" class="st13 st14">%</text>
</svg>
